# AST/ASF file generated using VICON BodyLanguage
# -----------------------------------------------
:version 1.10
:name VICON
:units
  mass 1.0
  length 0.45
  angle deg
:documentation
   .ast/.asf automatically generated from VICON data using
   VICON BodyBuilder and BodyLanguage model FoxedUp or BRILLIANT.MOD
:root
   order TX TY TZ RX RY RZ
   axis XYZ
   position 0 0 0  
   orientation 0 0 0 
:bonedata
  begin
     id 1 
     name lhipjoint
     direction 0.62366 -0.717238 0.310833 
     length 2.53602 
     axis 0 0 0  XYZ
  end
  begin
     id 2 
     name lfemur
     direction 0.34202 -0.939693 0  
     length 7.40817  
     axis 0 0 20  XYZ
    dof rx ry rz
    limits (-160.0 20.0)
           (-70.0 70.0)
           (-60.0 70.0)
  end
  begin
     id 3 
     name ltibia
     direction 0.34202 -0.939693 0   
     length 7.7045   
     axis 0 0 20   XYZ
    dof rx
    limits (-10.0 170.0)
  end
  begin
     id 4 
     name lfoot
     direction 0.0673888 -0.185149 0.980397   
     length 2.09456   
     axis -90 7.62852e-016 20   XYZ
    dof rx rz
    limits (-45.0 90.0)
           (-70.0 20.0)
  end
  begin
     id 5 
     name ltoes
     direction 1.53575e-011 -4.21994e-011 1   
     length 1.05543   
     axis -90 7.62852e-016 20   XYZ
    dof rx
    limits (-90.0 20.0)
  end
  begin
     id 6 
     name rhipjoint
     direction -0.489018 -0.800347 0.346851   
     length 2.27268  
     axis 0 0 0  XYZ 
  end
  begin
     id 7 
     name rfemur
     direction -0.34202 -0.939693 0   
     length 7.55487   
     axis 0 0 -20   XYZ
    dof rx ry rz
    limits (-160.0 20.0)
           (-70.0 70.0)
           (-70.0 60.0)
  end
  begin
     id 8 
     name rtibia
     direction -0.34202 -0.939693 0   
     length 7.78969   
     axis 0 0 -20   XYZ
    dof rx
    limits (-10.0 170.0)
 end
 begin
     id 9 
     name rfoot
     direction -0.0859318 -0.236096 0.967923   
     length 2.19143  
     axis -90 -7.62852e-016 -20   XYZ
    dof rx rz
    limits (-45.0 90.0)
           (-20.0 70.0)
  end
  begin
     id 10 
     name rtoes
     direction -1.53538e-011 -4.21989e-011 1   
     length 1.09845   
     axis -90 -7.62852e-016 -20   XYZ
    dof rx
    limits (-90.0 20.0)
  end
  begin
     id 11 
     name lowerback
     direction -0.00762546 0.998978 -0.0445553   
     length 1.98161   
     axis 0 0 0   XYZ
    dof rx ry rz
    limits (-20.0 45.0)
           (-30.0 30.0)
           (-30.0 30.0)
  end
  begin
     id 12 
     name upperback
     direction 0.0422361 0.998867 -0.0219156   
     length 1.97558   
     axis 0 0 0   XYZ
    dof rx ry rz
    limits (-20.0 45.0)
           (-30.0 30.0)
           (-30.0 30.0)
  end
  begin
     id 13 
     name thorax
     direction 0.0442465 0.999021 7.47603e-005   
     length 1.97799   
     axis 0 0 0   XYZ
    dof rx ry rz
    limits (-20.0 45.0)
           (-30.0 30.0)
           (-30.0 30.0)
  end
  begin
     id 14 
     name lowerneck
     direction 0.00312169 0.984641 0.174564   
     length 1.78995   
     axis 0 0 0   XYZ
    dof rx ry rz
    limits (-20.0 45.0)
           (-30.0 30.0)
           (-30.0 30.0)
  end
  begin
     id 15 
     name upperneck
     direction -0.0383028 0.985255 -0.166749   
     length 1.83053   
     axis 0 0 0   XYZ
    dof rx ry rz
    limits (-20.0 45.0)
           (-30.0 30.0)
           (-30.0 30.0)
  end
  begin
     id 16
     name head
     direction -0.0129546 0.997059 -0.0755386  
     length 1.84088  
     axis 0 0 0   XYZ
    dof rx ry rz
    limits (-20.0 45.0)
           (-30.0 30.0)
           (-30.0 30.0)
  end
  begin
     id 17 
     name lclavicle
     direction 0.912857 0.370519 -0.171488  
     length 3.51279  
     axis 0 0 0   XYZ
    dof ry rz
    limits (-20.0 10.0)
           (0.0 20.0)
  end
  begin
     id 18 
     name lhumerus
     direction 1 -4.48962e-011 3.64361e-027   
     length 4.95663   
     axis 180 -30 -90   XYZ
    dof rx ry rz
    limits (-60.0 90.0)
           (-90.0 90.0)
           (-90.0 90.0)
  end
  begin
     id 19
     name lradius
     direction 1 -4.48974e-011 5.97202e-027   
     length 3.38177   
     axis 180 -30 -90   XYZ
    dof rx
    limits (-10.0 170.0)
  end
  begin
     id 20
     name lwrist
     direction 1 -4.4896e-011 9.83288e-027   
     length 1.69088   
     axis -9.31221e-015 90 90   XYZ
    dof ry
    limits (-180.0 0.0)
 end
  begin
     id 21 
     name lhand
     direction 1 -4.4902e-011 1.96551e-026   
     length 0.662909   
     axis -1.25475e-014 90 90   XYZ
    dof rx rz
    limits (-90.0 90.0)
           (-45.0 45.0)
  end
  begin
     id 22 
     name lfingers
     direction 1 -4.48971e-011 3.93277e-026   
     length 0.534454   
     axis -2.50945e-014 90 90   XYZ
    dof rx
    limits (0.0 90.0)
  end
  begin
     id 23
     name lthumb
     direction 0.707107 -6.34933e-011 0.707107   
     length 0.767373   
     axis -90 45 -4.80359e-014   XYZ
    dof rx rz
    limits (-45.0 45.0)
           (-45.0 45.0)
  end
  begin
     id 24 
     name rclavicle
     direction -0.900919 0.395364 -0.178976   
     length 3.40627  
     axis 0 0 0   XYZ 
    dof ry rz
    limits (-10.0 20.0)
           (-20.0 0.0)
  end
  begin
     id 25 
     name rhumerus
     direction -1 -4.48969e-011 1.03875e-027  
     length 5.08365   
     axis 180 30 90   XYZ
    dof rx ry rz
    limits (-90.0 60.0)
           (-90.0 90.0)
           (-90.0 90.0)
  end
  begin
     id 26 
     name rradius
     direction -1 -4.48951e-011 5.02733e-027   
     length 3.35984   
     axis 180 30 90   XYZ
    dof rx
    limits (-10.0 170.0)
  end
  begin
     id 27 
     name rwrist
     direction -1 -4.49011e-011 9.82828e-027   
     length 1.67992   
     axis -9.31221e-015 -90 -90   XYZ
    dof ry
    limits (-180.0 0.0)
  end
  begin
     id 28
     name rhand
     direction -1 -4.48894e-011 1.96774e-026   
     length 0.820764   
     axis -1.25475e-014 -90 -90   XYZ
    dof rx rz
    limits (-90.0 90.0)
           (-45.0 45.0)
  end
  begin
     id 29
     name rfingers
     direction -1 -4.49095e-011 3.92833e-026   
     length 0.661721   
     axis -2.50945e-014 -90 -90   XYZ
    dof rx
    limits (0.0 90.0)
  end
  begin
     id 30
     name rthumb
     direction -0.707107 -6.34881e-011 0.707107   
     length 0.950103   
     axis -90 -45 4.80359e-014   XYZ
    dof rx rz
    limits (-45.0 45.0)
           (-45.0 45.0)
  end
:hierarchy
  begin
    root lhipjoint rhipjoint lowerback
    lhipjoint lfemur
    lfemur ltibia
    ltibia lfoot
    lfoot ltoes
    rhipjoint rfemur
    rfemur rtibia
    rtibia rfoot
    rfoot rtoes
    lowerback upperback
    upperback thorax
    thorax lowerneck lclavicle rclavicle
    lowerneck upperneck
    upperneck head
    lclavicle lhumerus
    lhumerus lradius
    lradius lwrist
    lwrist lhand lthumb
    lhand lfingers
    rclavicle rhumerus
    rhumerus rradius
    rradius rwrist
    rwrist rhand rthumb
    rhand rfingers
  end

#!OML:ASF I:\golf\golf\golf 2\Subject 1\2002-09-07\Subject1.ASF
:FULLY-SPECIFIED
:DEGREES
75
root -11.9386 18.1056 6.46577 -92.5814 85.3938 -108.768
lowerback 3.27915 1.89158 -1.50933
upperback 3.79041 2.58269 4.75671
thorax 1.78502 1.25853 5.73014
lowerneck -11.2753 -2.33608 1.77928
upperneck 42.2391 0.0314141 -3.42218
head 17.3877 0.595809 -1.65182
rclavicle -2.50469e-014 -3.65764e-014
rhumerus -11.1271 11.7042 -100.767
rradius 33.3189
rwrist -49.0973
rhand -29.9427 -16.173
rfingers 7.12502
rthumb -3.2621 -46.1277
lclavicle -2.50469e-014 -3.65764e-014
lhumerus -14.0029 -48.8054 108.924
lradius 38.1709
lwrist 52.819
lhand -9.18374 64.8502
lfingers 7.12502
lthumb -163.23 85.854
rfemur -27.1463 -0.0224984 15.2896
rtibia 19.1359
rfoot -3.23097 -8.18242
rtoes 2.72242
lfemur -27.4411 2.07984 -8.15422
ltibia 19.8556
lfoot -5.92161 -1.84608
ltoes -16.1778
76
root -11.9389 18.1065 6.46616 -93.2226 85.3458 -109.428
lowerback 3.24906 1.89785 -1.49247
upperback 3.80506 2.59202 4.79343
thorax 1.81521 1.26304 5.7607
lowerneck -11.3143 -2.34107 1.80137
upperneck 42.2554 0.0383105 -3.46676
head 17.4075 0.597099 -1.67572
rclavicle -2.38542e-015 -1.82882e-014
rhumerus -11.1127 11.7205 -100.841
rradius 33.299
rwrist -48.9503
rhand -29.8989 -16.1744
rfingers 7.12502
rthumb -3.21984 -46.1298
lclavicle -2.38542e-015 -1.82882e-014
lhumerus -14.0459 -49.0818 108.877
lradius 38.4385
lwrist 53.5715
lhand -9.46599 64.3755
lfingers 7.12502
lthumb -163.502 86.306
rfemur -27.1373 0.00594136 15.3162
rtibia 19.1101
rfoot -3.21765 -8.28731
rtoes 2.26627
lfemur -27.4254 1.92579 -8.06892
ltibia 19.7712
lfoot -5.91864 -1.75388
ltoes -16.5141
77
root -11.9383 18.1074 6.467 -93.7685 85.3293 -109.96
lowerback 3.25007 1.92874 -1.46456
upperback 3.82105 2.63421 4.80003
thorax 1.82741 1.28469 5.75111
lowerneck -11.3337 -2.37837 1.79322
upperneck 42.2795 -0.00272383 -3.48337
head 17.4246 0.579095 -1.68909
rclavicle -5.96354e-015 1.27222e-014
rhumerus -11.0837 11.7154 -100.879
rradius 33.2684
rwrist -48.7922
rhand -29.8001 -16.2476
rfingers 7.12502
rthumb -3.12437 -46.2045
lclavicle -5.96354e-015 1.27222e-014
lhumerus -14.0754 -49.1953 108.845
lradius 38.4549
lwrist 53.699
lhand -8.83231 63.8908
lfingers 7.12502
lthumb -162.892 86.8424
rfemur -27.0952 0.0434422 15.3124
rtibia 19.0849
rfoot -3.24731 -8.40119
rtoes 2.25373
lfemur -27.3489 1.71293 -7.9648
ltibia 19.6976
lfoot -5.96578 -1.70283
ltoes -16.2999
78
root -11.9379 18.1071 6.46764 -94.8611 85.352 -111.034
lowerback 3.25944 1.9655 -1.48101
upperback 3.84596 2.68339 4.80454
thorax 1.84171 1.3087 5.76442
lowerneck -11.3666 -2.41967 1.73178
upperneck 42.2736 -0.066797 -3.43646
head 17.4274 0.550116 -1.66714
rclavicle -1.47101e-014 -3.81667e-014
rhumerus -11.0809 11.7469 -100.818
rradius 33.3253
rwrist -48.8898
rhand -29.7879 -16.3022
rfingers 7.12502
rthumb -3.11264 -46.2592
lclavicle -1.47101e-014 -3.81667e-014
lhumerus -13.9658 -49.0057 108.763
lradius 38.3055
lwrist 52.9306
lhand -8.24969 64.0842
lfingers 7.12502
lthumb -162.331 86.6986
rfemur -27.0389 0.015324 15.2638
rtibia 19.052
rfoot -3.22383 -8.43759
rtoes 2.27202
lfemur -27.2899 1.5069 -7.92948
ltibia 19.6426
lfoot -5.91651 -1.65321
ltoes -15.0679
79
root -11.938 18.1082 6.46826 -96.2232 85.3177 -112.422
lowerback 3.23602 1.97861 -1.41442
upperback 3.85056 2.70198 4.7944
thorax 1.86072 1.31935 5.71638
lowerneck -11.4069 -2.43489 1.71539
upperneck 42.2826 -0.106913 -3.37962
head 17.4417 0.539513 -1.64524
rclavicle 1.90833e-014 1.27222e-014
rhumerus -10.98 11.4163 -100.86
rradius 33.1579
rwrist -48.5927
rhand -29.8389 -16.238
rfingers 7.12502
rthumb -3.16188 -46.1943
lclavicle 1.90833e-014 1.27222e-014
lhumerus -13.9154 -48.9643 108.653
lradius 38.2966
lwrist 52.5081
lhand -8.24097 64.3119
lfingers 7.12502
lthumb -162.323 86.4716
rfemur -27.0308 0.00737174 15.2509
rtibia 19.0342
rfoot -3.12953 -8.47495
rtoes 1.90663
lfemur -27.3057 1.35857 -7.8905
ltibia 19.5743
lfoot -5.80912 -1.5689
ltoes -13.4448
80
root -11.938 18.111 6.47056 -96.9682 85.239 -113.164
lowerback 3.24798 1.99361 -1.31677
upperback 3.83889 2.72448 4.79366
thorax 1.84356 1.33362 5.65844
lowerneck -11.3926 -2.43932 1.75744
upperneck 42.2824 -0.114822 -3.39529
head 17.4368 0.542528 -1.66083
rclavicle 1.78906e-014 2.46493e-014
rhumerus -10.7811 10.683 -100.994
rradius 32.7153
rwrist -47.6651
rhand -29.6865 -16.2431
rfingers 7.12502
rthumb -3.01467 -46.2016
lclavicle 1.78906e-014 2.46493e-014
lhumerus -13.9823 -49.0736 108.614
lradius 38.3511
lwrist 52.5967
lhand -8.26058 64.2936
lfingers 7.12502
lthumb -162.342 86.4882
rfemur -27.0093 0.0362129 15.2992
rtibia 19.0395
rfoot -3.11196 -8.56222
rtoes 2.01825
lfemur -27.2738 1.36249 -7.82428
ltibia 19.4825
lfoot -5.77604 -1.59852
ltoes -12.6065
81
root -11.9376 18.112 6.47242 -98.3322 85.2494 -114.519
lowerback 3.25694 1.97767 -1.38039
upperback 3.82608 2.70258 4.81211
thorax 1.8242 1.32156 5.71393
lowerneck -11.3479 -2.43899 1.72456
upperneck 42.2655 -0.0938239 -3.41183
head 17.4166 0.544797 -1.65757
rclavicle -3.97569e-014 -8.34896e-014
rhumerus -10.8232 10.7575 -101.026
rradius 32.7007
rwrist -47.6269
rhand -29.5354 -16.3389
rfingers 7.12502
rthumb -2.86879 -46.2994
lclavicle -3.97569e-014 -8.34896e-014
lhumerus -14.008 -48.9616 108.634
lradius 38.3224
lwrist 52.5566
lhand -8.28327 64.3821
lfingers 7.12502
lthumb -162.364 86.3978
rfemur -26.9812 -0.00676599 15.2468
rtibia 19.0455
rfoot -3.20206 -8.74706
rtoes 2.13994
lfemur -27.2793 1.50787 -7.96477
ltibia 19.3872
lfoot -5.7896 -1.74065
ltoes -13.8325
82
root -11.9369 18.1127 6.46935 -101.082 85.3418 -117.27
lowerback 3.25541 1.94265 -1.48287
upperback 3.81815 2.65341 4.7977
thorax 1.81865 1.29448 5.7583
lowerneck -11.3428 -2.45941 1.63478
upperneck 42.2764 -0.114279 -3.36016
head 17.4218 0.530799 -1.62063
rclavicle -1.27222e-014 -4.13472e-014
rhumerus -10.9704 11.206 -100.981
rradius 32.9487
rwrist -48.1774
rhand -29.7333 -16.3982
rfingers 7.12502
rthumb -3.05994 -46.356
lclavicle -1.27222e-014 -4.13472e-014
lhumerus -14.0312 -48.8783 108.691
lradius 38.3213
lwrist 52.5447
lhand -8.43151 64.5116
lfingers 7.12502
lthumb -162.506 86.2555
rfemur -26.9492 -0.213061 15.0789
rtibia 19.0488
rfoot -3.35073 -8.84874
rtoes 2.46259
lfemur -27.3084 1.37894 -8.19095
ltibia 19.2914
lfoot -5.75291 -1.79035
ltoes -15.1165
83
root -11.9366 18.1149 6.46596 -103.275 85.3413 -119.457
lowerback 3.26404 1.93769 -1.47367
upperback 3.82262 2.64742 4.80007
thorax 1.81939 1.29181 5.75552
lowerneck -11.3841 -2.49576 1.54829
upperneck 42.2943 -0.171852 -3.28534
head 17.4417 0.504967 -1.58071
rclavicle 2.18663e-014 3.02153e-014
rhumerus -10.9271 11.1382 -100.939
rradius 32.9461
rwrist -48.3362
rhand -29.7812 -16.3775
rfingers 7.12502
rthumb -3.10616 -46.3346
lclavicle 2.18663e-014 3.02153e-014
lhumerus -14.0423 -48.9197 108.75
lradius 38.3543
lwrist 52.8615
lhand -8.46317 64.346
lfingers 7.12502
lthumb -162.537 86.4184
rfemur -26.9052 -0.373443 15.0181
rtibia 19.0448
rfoot -3.39085 -8.8144
rtoes 2.43649
lfemur -27.2761 1.07763 -8.18672
ltibia 19.2081
lfoot -5.64585 -1.83086
ltoes -14.2529
84
root -11.9353 18.1168 6.4692 -103.139 85.3151 -119.345
lowerback 3.20567 1.96683 -1.55958
upperback 3.84904 2.68525 4.8602
thorax 1.86929 1.30753 5.87037
lowerneck -11.4316 -2.49782 1.52561
upperneck 42.2585 -0.166568 -3.30965
head 17.4338 0.498263 -1.5869
rclavicle -2.62396e-014 -1.19271e-014
rhumerus -10.9393 11.5024 -100.856
rradius 33.0947
rwrist -48.8266
rhand -29.5628 -16.2592
rfingers 7.12502
rthumb -2.89521 -46.2193
lclavicle -2.62396e-014 -1.19271e-014
lhumerus -13.9117 -48.8478 108.719
lradius 38.287
lwrist 53.1713
lhand -7.69005 63.4319
lfingers 7.12502
lthumb -161.793 87.4002
rfemur -26.907 -0.350613 15.0652
rtibia 19.0087
rfoot -3.25272 -8.75719
rtoes 1.30838
lfemur -27.2559 1.0805 -8.11333
ltibia 19.1738
lfoot -5.6072 -1.92072
ltoes -13.1556
